<?xml version="1.0" encoding="UTF-8"?>
<svg id="Layer_1" xmlns="http://www.w3.org/2000/svg" version="1.1" viewBox="0 0 275.8 288.97">
  <!-- Generator: Adobe Illustrator 29.8.4, SVG Export Plug-In . SVG Version: 2.1.1 Build 6)  -->
  <defs>
    <style>
      .st0 {
        fill: #f5f6f7;
      }
    </style>
  </defs>
  <path class="st0" d="M262.86,136.17c-3.55,0-6.52,2.56-7.15,5.94h-42.08v-18.05h22.52c.63,3.38,3.59,5.94,7.15,5.94,4.01,0,7.27-3.26,7.27-7.27s-3.26-7.27-7.27-7.27c-3.55,0-6.52,2.56-7.15,5.94h-22.52v-15.56h24.9l8.34-8.34c1.17.8,2.59,1.28,4.11,1.28,4.01,0,7.27-3.26,7.27-7.27s-3.26-7.27-7.27-7.27-7.27,3.26-7.27,7.27c0,1.52.47,2.94,1.28,4.11l-7.56,7.56h-23.8v-5.26c0-3.27-1.27-6.34-3.58-8.65l-12.79-12.79c-2.31-2.31-5.38-3.58-8.65-3.58h-5.26v-26.94l7.56-7.56c1.17.8,2.59,1.28,4.11,1.28,4.01,0,7.27-3.26,7.27-7.27s-3.26-7.27-7.27-7.27-7.27,3.26-7.27,7.27c0,1.52.47,2.94,1.28,4.11l-8.34,8.34v28.04h-15.56v-17.85c3.37-.63,5.94-3.59,5.94-7.15,0-4.01-3.26-7.27-7.27-7.27s-7.27,3.26-7.27,7.27c0,3.55,2.56,6.52,5.94,7.15v17.85h-18.05V30.81c3.37-.63,5.94-3.59,5.94-7.15,0-4.01-3.26-7.27-7.27-7.27s-7.27,3.26-7.27,7.27c0,3.55,2.56,6.52,5.94,7.15v42.08h-18.05v-22.52c3.38-.63,5.94-3.59,5.94-7.15,0-4.01-3.26-7.27-7.27-7.27s-7.27,3.26-7.27,7.27c0,3.55,2.56,6.52,5.94,7.15v22.52h-15.56v-24.9l-8.34-8.34c.8-1.17,1.28-2.59,1.28-4.11,0-4.01-3.26-7.27-7.27-7.27s-7.27,3.26-7.27,7.27,3.26,7.27,7.27,7.27c1.52,0,2.94-.47,4.11-1.28l7.56,7.56v23.8h-5.26c-3.27,0-6.34,1.27-8.65,3.58l-12.79,12.79c-2.31,2.31-3.58,5.38-3.58,8.65v5.26h-26.94l-7.56-7.56c.8-1.17,1.28-2.59,1.28-4.11,0-4.01-3.26-7.27-7.27-7.27s-7.27,3.26-7.27,7.27,3.26,7.27,7.27,7.27c1.52,0,2.94-.47,4.11-1.28l8.34,8.34h28.04v15.56h-17.85c-.63-3.38-3.59-5.94-7.15-5.94-4.01,0-7.27,3.26-7.27,7.27s3.26,7.27,7.27,7.27c3.55,0,6.52-2.56,7.15-5.94h17.85v18.05H30.44c-.63-3.38-3.59-5.94-7.15-5.94-4.01,0-7.27,3.26-7.27,7.27s3.26,7.27,7.27,7.27c3.55,0,6.52-2.56,7.15-5.94h42.08v18.05h-22.52c-.63-3.38-3.59-5.94-7.15-5.94-4.01,0-7.27,3.26-7.27,7.27s3.26,7.27,7.27,7.27c3.55,0,6.52-2.56,7.15-5.94h22.52v15.56h-24.9l-8.34,8.34c-1.17-.8-2.59-1.28-4.11-1.28-4.01,0-7.27,3.26-7.27,7.27s3.26,7.27,7.27,7.27,7.27-3.26,7.27-7.27c0-1.52-.47-2.94-1.28-4.11l7.56-7.56h23.8v5.26c0,3.27,1.27,6.34,3.58,8.65l12.79,12.79c2.31,2.31,5.38,3.58,8.65,3.58h5.26v26.94l-7.56,7.56c-1.17-.8-2.59-1.28-4.11-1.28-4.01,0-7.27,3.26-7.27,7.27s3.26,7.27,7.27,7.27,7.27-3.26,7.27-7.27c0-1.52-.47-2.94-1.28-4.11l8.34-8.34v-28.04h15.56v17.85c-3.37.63-5.94,3.59-5.94,7.15,0,4.01,3.26,7.27,7.27,7.27s7.27-3.26,7.27-7.27c0-3.55-2.56-6.52-5.94-7.15v-17.85h18.05v42.08c-3.37.63-5.94,3.59-5.94,7.15,0,4.01,3.26,7.27,7.27,7.27s7.27-3.26,7.27-7.27c0-3.55-2.56-6.52-5.94-7.15v-42.08h18.05v22.52c-3.38.63-5.94,3.59-5.94,7.15,0,4.01,3.26,7.27,7.27,7.27s7.27-3.26,7.27-7.27c0-3.55-2.56-6.52-5.94-7.15v-22.52h15.56v24.9l8.34,8.34c-.8,1.17-1.28,2.59-1.28,4.11,0,4.01,3.26,7.27,7.27,7.27s7.27-3.26,7.27-7.27-3.26-7.27-7.27-7.27c-1.52,0-2.94.47-4.11,1.28l-7.56-7.56v-23.8h5.26c3.27,0,6.34-1.27,8.65-3.58l12.79-12.79c2.31-2.31,3.58-5.38,3.58-8.65v-5.26h26.94l7.56,7.56c-.8,1.17-1.28,2.59-1.28,4.11,0,4.01,3.26,7.27,7.27,7.27s7.27-3.26,7.27-7.27-3.26-7.27-7.27-7.27c-1.52,0-2.94.47-4.11,1.28l-8.34-8.34h-28.04v-15.56h17.85c.63,3.38,3.59,5.94,7.15,5.94,4.01,0,7.27-3.26,7.27-7.27s-3.26-7.27-7.27-7.27c-3.55,0-6.52,2.56-7.15,5.94h-17.85v-18.05h42.08c.63,3.38,3.59,5.94,7.15,5.94,4.01,0,7.27-3.26,7.27-7.27s-3.26-7.27-7.27-7.27ZM243.3,118.12c2.54,0,4.61,2.07,4.61,4.61s-2.07,4.61-4.61,4.61-4.61-2.07-4.61-4.61,2.07-4.61,4.61-4.61ZM250.98,86.9c2.54,0,4.61,2.07,4.61,4.61s-2.07,4.61-4.61,4.61-4.61-2.07-4.61-4.61,2.07-4.61,4.61-4.61ZM195.02,27.79c2.54,0,4.61,2.07,4.61,4.61s-2.07,4.61-4.61,4.61-4.61-2.07-4.61-4.61,2.07-4.61,4.61-4.61ZM159.19,47.89c0-2.54,2.07-4.61,4.61-4.61s4.6,2.07,4.6,4.61-2.07,4.61-4.6,4.61-4.61-2.07-4.61-4.61ZM138.47,23.66c0-2.54,2.07-4.61,4.61-4.61s4.61,2.07,4.61,4.61-2.07,4.61-4.61,4.61-4.61-2.07-4.61-4.61ZM117.75,43.22c0-2.54,2.07-4.61,4.6-4.61s4.61,2.07,4.61,4.61-2.07,4.61-4.61,4.61-4.6-2.07-4.6-4.61ZM91.13,40.14c-2.54,0-4.61-2.07-4.61-4.61s2.07-4.61,4.61-4.61,4.61,2.07,4.61,4.61-2.07,4.61-4.61,4.61ZM32.03,96.11c-2.54,0-4.61-2.07-4.61-4.61s2.07-4.61,4.61-4.61,4.61,2.07,4.61,4.61-2.07,4.61-4.61,4.61ZM47.52,127.33c-2.54,0-4.61-2.07-4.61-4.61s2.07-4.61,4.61-4.61,4.6,2.07,4.6,4.61-2.07,4.61-4.6,4.61ZM23.29,148.05c-2.54,0-4.61-2.07-4.61-4.61s2.07-4.61,4.61-4.61,4.61,2.07,4.61,4.61-2.07,4.61-4.61,4.61ZM42.85,168.77c-2.54,0-4.61-2.07-4.61-4.61s2.07-4.61,4.61-4.61,4.61,2.07,4.61,4.61-2.07,4.61-4.61,4.61ZM35.17,200c-2.54,0-4.61-2.07-4.61-4.61s2.07-4.61,4.61-4.61,4.61,2.07,4.61,4.61-2.07,4.61-4.61,4.61ZM91.13,259.1c-2.54,0-4.61-2.07-4.61-4.61s2.07-4.61,4.61-4.61,4.61,2.07,4.61,4.61-2.07,4.61-4.61,4.61ZM126.96,239.01c0,2.54-2.07,4.61-4.61,4.61s-4.6-2.07-4.6-4.61,2.07-4.61,4.6-4.61,4.61,2.07,4.61,4.61ZM147.68,263.23c0,2.54-2.07,4.61-4.61,4.61s-4.61-2.07-4.61-4.61,2.07-4.61,4.61-4.61,4.61,2.07,4.61,4.61ZM168.4,243.67c0,2.54-2.07,4.61-4.6,4.61s-4.61-2.07-4.61-4.61,2.07-4.61,4.61-4.61,4.6,2.07,4.6,4.61ZM195.02,246.75c2.54,0,4.61,2.07,4.61,4.61s-2.07,4.61-4.61,4.61-4.61-2.07-4.61-4.61,2.07-4.61,4.61-4.61ZM254.12,190.79c2.54,0,4.61,2.07,4.61,4.61s-2.07,4.61-4.61,4.61-4.61-2.07-4.61-4.61,2.07-4.61,4.61-4.61ZM238.64,159.56c2.54,0,4.61,2.07,4.61,4.61s-2.07,4.61-4.61,4.61-4.6-2.07-4.6-4.61,2.07-4.61,4.6-4.61ZM210.97,188.98c0,2.56-1,4.96-2.8,6.76l-12.79,12.79c-1.81,1.81-4.21,2.8-6.76,2.8h-91.06c-2.56,0-4.96-1-6.77-2.8l-12.79-12.79c-1.81-1.81-2.8-4.21-2.8-6.76v-91.06c0-2.56,1-4.96,2.8-6.77l12.79-12.79c1.81-1.81,4.21-2.8,6.77-2.8h91.06c2.56,0,4.96,1,6.76,2.8l12.79,12.79c1.81,1.81,2.8,4.21,2.8,6.77v91.06ZM262.86,148.05c-2.54,0-4.61-2.07-4.61-4.61s2.07-4.61,4.61-4.61,4.61,2.07,4.61,4.61-2.07,4.61-4.61,4.61Z"/>
  <path class="st0" d="M170.02,110.26c-1.26-1.26-2.93-1.95-4.71-1.95h-44.47c-1.78,0-3.45.69-4.71,1.95l-6.25,6.25c-1.26,1.26-1.95,2.93-1.95,4.71v44.47c0,1.78.69,3.45,1.95,4.71l6.25,6.25c1.26,1.26,2.93,1.95,4.71,1.95h44.47c1.78,0,3.45-.69,4.71-1.95l6.25-6.25c1.26-1.26,1.95-2.93,1.95-4.71v-44.47c0-1.78-.69-3.45-1.95-4.71l-6.25-6.25ZM175.55,165.68c0,1.07-.42,2.07-1.17,2.82l-6.25,6.25c-.75.75-1.76,1.17-2.82,1.17h-44.47c-1.07,0-2.07-.42-2.82-1.17l-6.25-6.25c-.75-.75-1.17-1.76-1.17-2.82v-44.47c0-1.07.42-2.07,1.17-2.82l6.25-6.25c.75-.75,1.76-1.17,2.82-1.17h44.47c1.07,0,2.07.41,2.82,1.17l6.25,6.25c.75.75,1.17,1.76,1.17,2.82v44.47Z"/>
  <path class="st0" d="M191.6,82.13c-.8-.8-1.86-1.24-2.99-1.24h-91.06c-1.13,0-2.19.44-2.99,1.24l-12.79,12.79c-.8.8-1.24,1.86-1.24,2.99v91.06c0,1.13.44,2.19,1.24,2.99l12.79,12.79c.8.8,1.86,1.24,2.99,1.24h91.06c1.13,0,2.19-.44,2.99-1.24l12.79-12.79c.8-.8,1.24-1.86,1.24-2.99v-91.06c0-1.13-.44-2.19-1.24-2.99l-12.79-12.79ZM202.96,188.98c0,.42-.16.81-.46,1.11l-12.79,12.79c-.3.3-.69.46-1.11.46h-91.06c-.42,0-.81-.16-1.11-.46l-12.79-12.79c-.3-.3-.46-.69-.46-1.11v-91.06c0-.42.16-.81.46-1.11l12.79-12.79c.3-.3.69-.46,1.11-.46h91.06c.42,0,.81.16,1.11.46l12.79,12.79c.3.3.46.69.46,1.11v91.06Z"/>
  <path class="st0" d="M132.91,129.49l-9.73,27.91h6.13l2.1-6.77h9.86l2.1,6.77h6.15l-9.73-27.91h-6.89ZM132.77,146.26l3.52-11.35h.12l3.51,11.35h-7.15Z"/>
  <rect class="st0" x="152.39" y="129.49" width="5.84" height="27.91"/>
</svg>