<?xml version="1.0" encoding="UTF-8"?>
<svg id="Layer_1" xmlns="http://www.w3.org/2000/svg" version="1.1" xmlns:xlink="http://www.w3.org/1999/xlink" viewBox="0 0 164 38">
  <!-- Generator: Adobe Illustrator 29.5.1, SVG Export Plug-In . SVG Version: 2.1.0 Build 141)  -->
  <defs>
    <style>
      .st0 {
        fill: url(#linear-gradient2);
      }

      .st1 {
        fill: #1d2a3a;
      }

      .st2 {
        fill: url(#Adsız_degrade_4);
      }

      .st3 {
        fill: url(#linear-gradient1);
      }

      .st4 {
        fill: url(#linear-gradient4);
      }

      .st5 {
        fill: url(#linear-gradient5);
      }

      .st6 {
        fill: url(#linear-gradient3);
      }

      .st7 {
        fill: url(#linear-gradient);
      }
    </style>
    <linearGradient id="Adsız_degrade_4" data-name="Adsız degrade 4" x1="3.44" y1="19.63" x2="44.05" y2="19.63" gradientUnits="userSpaceOnUse">
      <stop offset="0" stop-color="#065629"/>
      <stop offset="1" stop-color="#51ad32"/>
    </linearGradient>
    <linearGradient id="linear-gradient" x1="-1264.51" y1="19.58" x2="-1237.34" y2="19.58" gradientTransform="translate(-1231.33) rotate(-180) scale(1 -1)" gradientUnits="userSpaceOnUse">
      <stop offset="0" stop-color="#fff"/>
      <stop offset=".24" stop-color="#fafafa"/>
      <stop offset=".52" stop-color="#ecedef"/>
      <stop offset=".81" stop-color="#d5d7db"/>
      <stop offset="1" stop-color="#c2c6cc"/>
    </linearGradient>
    <linearGradient id="linear-gradient1" x1="11.67" y1="16.37" x2="33.03" y2="16.37" gradientTransform="matrix(1,0,0,1,0,0)" xlink:href="#linear-gradient"/>
    <linearGradient id="linear-gradient2" x1="11.67" y1="21.79" x2="14.43" y2="21.79" gradientTransform="matrix(1,0,0,1,0,0)" xlink:href="#linear-gradient"/>
    <linearGradient id="linear-gradient3" x1="23.6" y1="21.79" x2="33.03" y2="21.79" gradientTransform="matrix(1,0,0,1,0,0)" xlink:href="#linear-gradient"/>
    <linearGradient id="linear-gradient4" x1="11.35" y1="26.58" x2="33.03" y2="26.58" gradientTransform="matrix(1,0,0,1,0,0)" xlink:href="#linear-gradient"/>
    <linearGradient id="linear-gradient5" x1="24.36" y1="29.84" x2="33.03" y2="29.84" gradientTransform="matrix(1,0,0,1,0,0)" xlink:href="#linear-gradient"/>
  </defs>
  <path class="st1" d="M63.84,2.04c0-.32.14-.56.56-.56h1.46c.34,0,.5.2.5.58v1.4c0,.42-.2.54-.5.54h-1.44c-.38,0-.58-.18-.58-.54v-1.42ZM63.96,9.94c0-.44.2-.66.62-.66h1.04c.4,0,.78.26.78.66v23.2c0,.46-.2.68-.58.68h-1.24c-.42,0-.62-.22-.62-.68V9.94Z"/>
  <path class="st1" d="M80.86,18.95l12.05,13.84c.44.5.04,1.04-.38,1.04h-1.4c-.22,0-.42-.04-.76-.44l-11.09-12.94-4.01,3.83v8.82c0,.42-.18.72-.6.72h-1.22c-.42,0-.4-.3-.4-.72V2.77c0-.4.18-.68.6-.68h1.02c.42,0,.6.28.6.68v18.65l12.17-11.79c.32-.32.56-.34.8-.34h1.46c.46,0,.68.42.34.76l-9.19,8.9Z"/>
  <path class="st1" d="M108.36,9.04c7.02,0,12.63,5.6,12.63,12.57s-5.6,12.71-12.59,12.71-12.71-5.78-12.71-12.71,5.74-12.57,12.67-12.57ZM108.4,32.14c5.94,0,10.29-4.87,10.29-10.53s-4.55-10.43-10.33-10.43-10.31,4.71-10.31,10.43,4.65,10.53,10.35,10.53Z"/>
  <path class="st1" d="M125.73,9.98c0-.46.3-.7.72-.7h.8c.46,0,.7.3.7.7v3.05c2.25-3.37,5.72-4.07,8.14-4.07,5.94,0,9.89,4.27,9.89,10.27v13.76c0,.56-.32.84-.78.84h-.7c-.62,0-.76-.24-.76-.82v-13.84c0-4.01-2.91-7.96-7.78-7.96-3.95,0-8,3.29-8,7.72v14.28c0,.42-.2.62-.58.62h-1.02c-.4,0-.6-.2-.6-.62l-.02-23.22Z"/>
  <path class="st1" d="M155.55,9.42h4.41c.38,0,.6.18.6.6v.78c0,.32-.24.74-.62.74h-4.39v16.99c0,1.4.64,3.15,2.67,3.21l.72.02c.86,0,.82.32.82.52v.96c0,.42-.04.62-.92.62-.54,0-.98,0-1.38-.06-2.71-.32-4.23-2.53-4.23-4.93V11.55h-3.37c-.34,0-.64-.32-.64-.74v-.76c0-.46.3-.62.64-.62h3.37v-5.25c0-.4.14-.56.6-.7l1.08-.28c.42-.14.64.26.64.68v5.55Z"/>
  <path class="st1" d="M44.14,5.21h-1.15c.44.73.76,1.54.92,2.41h.17c7.28,0,12.33,5.29,12.33,11.93s-5.43,11.9-12.48,11.93c-.14.84-.42,1.63-.82,2.35h.8c8.74,0,14.92-6.4,14.92-14.28s-6.06-14.34-14.7-14.34Z"/>
  <path class="st2" d="M37.09,7.62h6.82c.08.44.13.9.13,1.36v21.29c0,.41-.04.82-.11,1.21h-6.84V7.62ZM35.33,33.83c-.4,0-.6-.2-.6-.62V5.83c0-.42.2-.62.6-.62h7.66c-1.29-2.15-3.64-3.6-6.32-3.6H10.81c-4.05,0-7.37,3.32-7.37,7.37v21.29c0,4.05,3.32,7.37,7.37,7.37h25.87c2.77,0,5.19-1.55,6.45-3.81h-7.79Z"/>
  <path class="st7" d="M33.18,35.03H11.93c-3.26,0-5.91-2.65-5.91-5.91V10.03c0-3.26,2.65-5.91,5.91-5.91h21.25v1.08H11.93c-2.66,0-4.83,2.16-4.83,4.83v19.09c0,2.66,2.16,4.83,4.83,4.83h21.25v1.08Z"/>
  <path class="st3" d="M17.76,23.85l-6.03-7.67c-.08-.11-.08-.26.02-.36h0c.1-.1.25-.11.37-.03l6.13,4.7c.08.06.2.06.28,0l14.15-11.87c.09-.08.22-.07.3.01h0c.08.09.09.22,0,.31l-13.91,14.96c-.36.39-.98.36-1.31-.05Z"/>
  <rect class="st0" x="11.67" y="21.25" width="2.76" height="1.08"/>
  <rect class="st6" x="23.6" y="21.25" width="9.44" height="1.08"/>
  <rect class="st4" x="11.35" y="26.04" width="21.69" height="1.08"/>
  <rect class="st5" x="24.36" y="29.29" width="8.67" height="1.08"/>
</svg>