<?xml version="1.0" encoding="UTF-8"?>
<svg id="katman_1" xmlns="http://www.w3.org/2000/svg" version="1.1" xmlns:xlink="http://www.w3.org/1999/xlink" viewBox="0 0 841.89 325.73">
  <!-- Generator: Adobe Illustrator 29.5.1, SVG Export Plug-In . SVG Version: 2.1.0 Build 141)  -->
  <defs>
    <style>
      .st0 {
        fill: url(#linear-gradient2);
      }

      .st1 {
        fill: url(#Adsız_degrade_4);
      }

      .st2 {
        fill: url(#linear-gradient1);
      }

      .st3 {
        fill: #1d2a3a;
      }

      .st4 {
        fill: url(#linear-gradient4);
      }

      .st5 {
        fill: url(#linear-gradient5);
      }

      .st6 {
        fill: url(#linear-gradient3);
      }

      .st7 {
        fill: #010101;
      }

      .st8 {
        fill: url(#linear-gradient);
      }
    </style>
    <linearGradient id="Adsız_degrade_4" data-name="Adsız degrade 4" x1="24.6" y1="118.82" x2="229.51" y2="118.82" gradientUnits="userSpaceOnUse">
      <stop offset="0" stop-color="#085629"/>
      <stop offset="1" stop-color="#52ae32"/>
    </linearGradient>
    <linearGradient id="linear-gradient" x1="-728.02" y1="118.57" x2="-590.95" y2="118.57" gradientTransform="translate(-553.33) rotate(-180) scale(1 -1)" gradientUnits="userSpaceOnUse">
      <stop offset="0" stop-color="#fff"/>
      <stop offset=".24" stop-color="#fafafa"/>
      <stop offset=".53" stop-color="#ecedef"/>
      <stop offset=".83" stop-color="#d5d7db"/>
      <stop offset="1" stop-color="#c4c8cd"/>
    </linearGradient>
    <linearGradient id="linear-gradient1" x1="66.14" y1="102.41" x2="173.94" y2="102.41" gradientTransform="matrix(1,0,0,1,0,0)" xlink:href="#linear-gradient"/>
    <linearGradient id="linear-gradient2" x1="66.14" y1="129.76" x2="80.07" y2="129.76" gradientTransform="matrix(1,0,0,1,0,0)" xlink:href="#linear-gradient"/>
    <linearGradient id="linear-gradient3" x1="126.33" y1="129.76" x2="173.94" y2="129.76" gradientTransform="matrix(1,0,0,1,0,0)" xlink:href="#linear-gradient"/>
    <linearGradient id="linear-gradient4" x1="64.51" y1="153.92" x2="173.94" y2="153.92" gradientTransform="matrix(1,0,0,1,0,0)" xlink:href="#linear-gradient"/>
    <linearGradient id="linear-gradient5" x1="130.17" y1="170.34" x2="173.94" y2="170.34" gradientTransform="matrix(1,0,0,1,0,0)" xlink:href="#linear-gradient"/>
  </defs>
  <path class="st3" d="M329.39,30.09c0-1.62.71-2.83,2.83-2.83h7.39c1.72,0,2.53,1.01,2.53,2.93v7.08c0,2.13-1.01,2.73-2.53,2.73h-7.29c-1.92,0-2.93-.91-2.93-2.73v-7.18ZM329.99,69.96c0-2.23,1.01-3.34,3.14-3.34h5.26c2.02,0,3.95,1.31,3.95,3.34v117.07c0,2.33-1.01,3.44-2.94,3.44h-6.27c-2.12,0-3.14-1.11-3.14-3.44v-117.07Z"/>
  <path class="st3" d="M415.3,115.4l60.82,69.82c2.22,2.53.2,5.26-1.92,5.26h-7.09c-1.11,0-2.12-.2-3.84-2.22l-55.96-65.27-20.24,19.33v44.52c0,2.13-.91,3.64-3.04,3.64h-6.17c-2.13,0-2.03-1.52-2.03-3.64V33.74c0-2.03.91-3.44,3.04-3.44h5.16c2.12,0,3.04,1.42,3.04,3.44v94.11l61.43-59.5c1.62-1.62,2.83-1.72,4.04-1.72h7.39c2.32,0,3.44,2.12,1.72,3.84l-46.35,44.93Z"/>
  <path class="st3" d="M554.04,65.41c35.42,0,63.75,28.23,63.75,63.45s-28.23,64.16-63.55,64.16-64.15-29.14-64.15-64.16,28.94-63.45,63.95-63.45ZM554.24,181.98c29.96,0,51.91-24.59,51.91-53.12s-22.97-52.62-52.11-52.62-52.01,23.78-52.01,52.62,23.48,53.12,52.22,53.12Z"/>
  <path class="st3" d="M641.68,70.17c0-2.33,1.52-3.54,3.64-3.54h4.04c2.33,0,3.54,1.52,3.54,3.54v15.38c11.33-17,28.84-20.54,41.09-20.54,29.95,0,49.89,21.55,49.89,51.81v69.42c0,2.83-1.62,4.25-3.95,4.25h-3.54c-3.14,0-3.85-1.21-3.85-4.15v-69.82c0-20.24-14.67-40.17-39.26-40.17-19.94,0-40.38,16.59-40.38,38.96v72.05c0,2.13-1.01,3.14-2.93,3.14h-5.16c-2.03,0-3.04-1.01-3.04-3.14l-.1-117.18Z"/>
  <path class="st3" d="M792.16,67.33h22.26c1.92,0,3.04.91,3.04,3.04v3.95c0,1.62-1.21,3.74-3.14,3.74h-22.16v85.71c0,7.08,3.24,15.89,13.45,16.19l3.64.1c4.35,0,4.15,1.62,4.15,2.63v4.86c0,2.13-.2,3.14-4.66,3.14-2.73,0-4.95,0-6.98-.3-13.66-1.62-21.35-12.75-21.35-24.89v-87.43h-17c-1.72,0-3.24-1.62-3.24-3.74v-3.85c0-2.33,1.52-3.14,3.24-3.14h17v-26.51c0-2.03.71-2.83,3.04-3.54l5.47-1.42c2.12-.71,3.24,1.31,3.24,3.44v28.03Z"/>
  <path class="st3" d="M230,46.08h-5.8c2.22,3.69,3.82,7.78,4.65,12.14h.85c36.73,0,62.23,26.71,62.23,60.21s-27.38,60.06-62.97,60.2c-.71,4.23-2.1,8.22-4.11,11.85h4.04c44.12,0,75.29-32.28,75.29-72.05s-30.56-72.35-74.17-72.35Z"/>
  <g>
    <path class="st7" d="M26.21,240.68c0-.7.33-1.03,1-1.03h14.78c14.35,0,24.4,10.75,24.4,23.8s-10.25,23.7-24.77,23.7h-14.42c-.67,0-1-.33-1-1.03v-45.44ZM41.89,243.64h-11.75v39.62h11.42c11.75,0,20.81-8.79,20.81-19.81s-8.39-19.81-20.48-19.81Z"/>
    <path class="st7" d="M74.68,234.39c0-.53.23-.93.93-.93h2.43c.57,0,.83.34.83.97v2.33c0,.7-.33.9-.83.9h-2.4c-.63,0-.97-.3-.97-.9v-2.36ZM74.88,247.51c0-.73.33-1.1,1.03-1.1h1.73c.67,0,1.3.43,1.3,1.1v38.52c0,.77-.33,1.13-.96,1.13h-2.06c-.7,0-1.03-.36-1.03-1.13v-38.52Z"/>
    <path class="st7" d="M89.79,247.51c0-.76.33-1.13,1.03-1.13h2.03c.66,0,1,.37,1,1.13v40.38c0,6.79-4.59,12.19-11.12,12.19-1.16,0-1.36-.33-1.36-.76v-2.1c0-.37.07-.9,1.36-.9,3.86,0,7.06-2.56,7.06-8.32v-40.48ZM89.69,234.39c0-.53.23-.93.93-.93h2.43c.57,0,.83.34.83.97v2.33c0,.7-.33.9-.83.9h-2.4c-.63,0-.97-.3-.97-.9v-2.36Z"/>
    <path class="st7" d="M103.3,234.39c0-.53.23-.93.93-.93h2.43c.57,0,.83.34.83.97v2.33c0,.7-.33.9-.83.9h-2.4c-.63,0-.97-.3-.97-.9v-2.36ZM103.5,247.51c0-.73.33-1.1,1.03-1.1h1.73c.67,0,1.3.43,1.3,1.1v38.52c0,.77-.33,1.13-.96,1.13h-2.06c-.7,0-1.03-.36-1.03-1.13v-38.52Z"/>
    <path class="st7" d="M124.48,246.64h7.32c.63,0,1,.3,1,1v1.3c0,.53-.4,1.23-1.03,1.23h-7.29v28.2c0,2.33,1.07,5.23,4.43,5.33l1.2.03c1.43,0,1.36.53,1.36.87v1.6c0,.7-.07,1.04-1.53,1.04-.9,0-1.63,0-2.3-.1-4.49-.53-7.02-4.2-7.02-8.19v-28.76h-5.59c-.57,0-1.07-.53-1.07-1.23v-1.27c0-.76.5-1.03,1.07-1.03h5.59v-8.72c0-.67.23-.93,1-1.17l1.8-.46c.7-.23,1.07.43,1.07,1.13v9.22Z"/>
    <path class="st7" d="M174.95,278.33c-3.36,5.93-9.95,9.59-17.05,9.59-11.52,0-21.01-9.52-21.01-21.01s9.52-20.98,21.01-20.98c6.96,0,13.58,3.73,17.05,9.65v-8.19c0-.66.33-1,.96-1h1.67c.73,0,1.1.34,1.1,1v38.72c0,.7-.53,1.03-1.2,1.03h-1.3c-.83,0-1.23-.4-1.23-1.16v-7.66ZM157.87,249.53h-.1c-9.12,0-17.01,8.06-17.01,17.31s7.63,17.51,16.95,17.51,17.41-7.92,17.41-17.45-8.06-17.28-17.25-17.38Z"/>
    <path class="st7" d="M188.29,235.66c0-.7.33-1.2,1.03-1.2h1.66c.7,0,1.03.53,1.03,1.2v50.3c0,.7-.33,1.2-1.03,1.2h-1.66c-.7,0-1.03-.43-1.03-1.2v-50.3Z"/>
    <path class="st7" d="M238.92,259.39l22.24,26.33c.53.64.1,1.43-.66,1.43h-2.63c-.37,0-.73-.2-1.23-.76l-20.17-24.4-10.15,10.82v13.22c0,.77-.33,1.13-.96,1.13h-2.1c-.66,0-1-.36-1-1.13v-45.24c0-.64.33-1.13,1-1.13h2.06c.63,0,1,.46,1,1.13v26.63l25.37-27.03c.57-.63.93-.73,1.3-.73h2.53c.8,0,1.13.9.6,1.53l-17.18,18.21Z"/>
    <path class="st7" d="M282.16,246.01c11.65,0,20.98,9.29,20.98,20.87s-9.29,21.1-20.91,21.1-21.11-9.59-21.11-21.1,9.52-20.87,21.04-20.87ZM282.23,284.36c9.85,0,17.08-8.09,17.08-17.48s-7.56-17.31-17.15-17.31-17.11,7.82-17.11,17.31,7.72,17.48,17.18,17.48Z"/>
    <path class="st7" d="M310.99,247.57c0-.77.5-1.17,1.2-1.17h1.33c.77,0,1.16.5,1.16,1.17v5.06c3.73-5.59,9.49-6.76,13.52-6.76,9.85,0,16.41,7.09,16.41,17.05v22.83c0,.93-.53,1.4-1.3,1.4h-1.16c-1.03,0-1.27-.4-1.27-1.36v-22.97c0-6.66-4.83-13.22-12.92-13.22-6.56,0-13.28,5.46-13.28,12.82v23.7c0,.7-.33,1.03-.96,1.03h-1.7c-.67,0-1-.33-1-1.03l-.03-38.55Z"/>
    <path class="st7" d="M360.49,246.64h7.32c.63,0,1,.3,1,1v1.3c0,.53-.4,1.23-1.03,1.23h-7.29v28.2c0,2.33,1.07,5.23,4.43,5.33l1.2.03c1.43,0,1.36.53,1.36.87v1.6c0,.7-.07,1.04-1.53,1.04-.9,0-1.63,0-2.3-.1-4.5-.53-7.02-4.2-7.02-8.19v-28.76h-5.59c-.57,0-1.07-.53-1.07-1.23v-1.27c0-.76.5-1.03,1.07-1.03h5.59v-8.72c0-.67.23-.93,1-1.17l1.8-.46c.7-.23,1.07.43,1.07,1.13v9.22Z"/>
    <path class="st7" d="M374.34,247.54c0-.76.33-1.13,1.03-1.13h1.56c.7,0,1.2.34,1.2,1.17v5.52c2.63-4.22,7.22-6.69,11.68-6.69,4.69,0,8.96,2.4,10.72,4,.77.69.6,1.26.37,1.56l-.93,1.3c-.3.36-.87.7-1.56.06-1.86-1.6-4.93-3.29-8.82-3.29-5.29,0-11.45,3.46-11.45,13.71v22.27c0,.77-.33,1.13-1.03,1.13h-1.73c-.7,0-1.03-.36-1.03-1.13v-38.49Z"/>
    <path class="st7" d="M440.88,278.33c-3.36,5.93-9.95,9.59-17.05,9.59-11.52,0-21.01-9.52-21.01-21.01s9.52-20.98,21.01-20.98c6.96,0,13.58,3.73,17.05,9.65v-8.19c0-.66.33-1,.96-1h1.67c.73,0,1.1.34,1.1,1v38.72c0,.7-.53,1.03-1.2,1.03h-1.3c-.83,0-1.23-.4-1.23-1.16v-7.66ZM423.8,249.53h-.1c-9.12,0-17.01,8.06-17.01,17.31s7.63,17.51,16.95,17.51,17.41-7.92,17.41-17.45-8.06-17.28-17.25-17.38Z"/>
    <path class="st7" d="M460.32,246.64h7.32c.64,0,1,.3,1,1v1.3c0,.53-.4,1.23-1.03,1.23h-7.29v28.2c0,2.33,1.06,5.23,4.43,5.33l1.2.03c1.43,0,1.36.53,1.36.87v1.6c0,.7-.06,1.04-1.53,1.04-.9,0-1.63,0-2.3-.1-4.49-.53-7.02-4.2-7.02-8.19v-28.76h-5.59c-.57,0-1.07-.53-1.07-1.23v-1.27c0-.76.5-1.03,1.07-1.03h5.59v-8.72c0-.67.23-.93,1-1.17l1.8-.46c.7-.23,1.06.43,1.06,1.13v9.22Z"/>
    <path class="st7" d="M494.2,240.68c0-.7.33-1.03,1-1.03h14.78c14.35,0,24.4,10.75,24.4,23.8s-10.25,23.7-24.77,23.7h-14.41c-.67,0-1-.33-1-1.03v-45.44ZM509.89,243.64h-11.75v39.62h11.42c11.75,0,20.8-8.79,20.8-19.81s-8.39-19.81-20.47-19.81Z"/>
    <path class="st7" d="M562.55,246.01c11.65,0,20.98,9.29,20.98,20.87s-9.29,21.1-20.91,21.1-21.1-9.59-21.1-21.1,9.52-20.87,21.04-20.87ZM562.61,284.36c9.86,0,17.08-8.09,17.08-17.48s-7.56-17.31-17.15-17.31-17.11,7.82-17.11,17.31,7.73,17.48,17.18,17.48ZM554.46,237.95c0-.64.27-1.03,1.03-1.03h2.6c.64,0,.97.36.97,1.1v2.43c0,.83-.4,1.07-.97,1.07h-2.6c-.7,0-1.03-.37-1.03-1.07v-2.49ZM565.78,237.95c0-.64.26-1.03,1.03-1.03h2.6c.64,0,.97.36.97,1.1v2.43c0,.83-.4,1.07-.97,1.07h-2.6c-.7,0-1.03-.37-1.03-1.07v-2.49Z"/>
    <path class="st7" d="M591.38,247.57c0-.77.5-1.17,1.2-1.17h1.33c.76,0,1.16.5,1.16,1.17v5.06c3.73-5.59,9.49-6.76,13.52-6.76,9.85,0,16.41,7.09,16.41,17.05v22.83c0,.93-.53,1.4-1.3,1.4h-1.16c-1.04,0-1.27-.4-1.27-1.36v-22.97c0-6.66-4.83-13.22-12.92-13.22-6.56,0-13.29,5.46-13.29,12.82v23.7c0,.7-.33,1.03-.96,1.03h-1.7c-.67,0-1-.33-1-1.03l-.03-38.55Z"/>
    <path class="st7" d="M664.58,247.54c0-.76.36-1.13,1.06-1.13h1.66c.67,0,1,.37,1,1.13v38.45c0,.76-.33,1.16-1,1.16h-1.56c-.7,0-1.16-.53-1.16-1.23v-5.3c-3.03,4.69-8.43,7.19-13.42,7.19-9.59,0-16.65-7.29-16.65-17.68v-22.6c0-.76.34-1.13,1-1.13h1.69c.7,0,1.07.37,1.07,1.13v22.44c0,8.39,5.72,13.98,13.32,13.98,5.83,0,12.99-4.33,12.99-12.82v-23.61ZM643.71,237.22c0-.64.27-1.04,1.03-1.04h2.6c.64,0,.97.37.97,1.1v2.43c0,.83-.4,1.07-.97,1.07h-2.6c-.7,0-1.03-.37-1.03-1.07v-2.49ZM655.02,237.22c0-.64.27-1.04,1.04-1.04h2.6c.63,0,.97.37.97,1.1v2.43c0,.83-.4,1.07-.97,1.07h-2.6c-.7,0-1.04-.37-1.04-1.07v-2.49Z"/>
    <path class="st7" d="M676.36,277.14l1.27-.3c.97-.23,1.2.13,1.46,1.03,1.13,4.06,5.23,6.49,9.99,6.49,3.83,0,10.39-2.2,10.39-7.92,0-5.2-5.6-7.29-10.56-8.46-6.36-1.5-12.21-5.06-12.21-10.95,0-6.76,5.09-11.09,12.68-11.09,6.26,0,10.22,3.03,12.45,8.06.27.63.17,1.13-.23,1.36l-1.47.77c-.5.27-1.03.13-1.6-.9-1.76-3.19-4.99-5.66-9.19-5.66-4.66,0-8.79,2.4-8.79,7.35,0,4.26,5.76,6.63,9.36,7.43,5.79,1.33,13.35,4.53,13.35,12.02s-6.65,11.62-14.18,11.62c-6.22,0-11.95-3.33-13.35-9.25-.23-.7-.2-1.23.63-1.6ZM687.55,286.16c.1-.5.4-.73.9-.73h1.23c.63,0,.8.33.9.83-.13,1.33-.03,3.06.1,4.36,2.53.8,4.8,2.7,4.9,5.83.1,3.53-3.06,6.13-6.63,6.39-.3.03-.67.03-.76-.34l-.43-1.76c-.1-.27.19-.53.46-.57,2.53-.23,4.2-1.8,4.2-3.76,0-1.73-1.33-2.86-2.9-3.43-.66-.23-1.53-.5-1.83-1.13-.27-.5-.3-3.4-.13-5.69Z"/>
    <path class="st7" d="M741.41,247.54c0-.76.37-1.13,1.07-1.13h1.67c.66,0,.99.37.99,1.13v38.45c0,.76-.33,1.16-.99,1.16h-1.56c-.7,0-1.17-.53-1.17-1.23v-5.3c-3.03,4.69-8.42,7.19-13.41,7.19-9.59,0-16.64-7.29-16.64-17.68v-22.6c0-.76.33-1.13.99-1.13h1.7c.7,0,1.06.37,1.06,1.13v22.44c0,8.39,5.73,13.98,13.32,13.98,5.83,0,12.98-4.33,12.98-12.82v-23.61ZM720.53,237.22c0-.64.27-1.04,1.03-1.04h2.6c.63,0,.96.37.96,1.1v2.43c0,.83-.4,1.07-.96,1.07h-2.6c-.7,0-1.03-.37-1.03-1.07v-2.49ZM731.85,237.22c0-.64.27-1.04,1.03-1.04h2.6c.64,0,.97.37.97,1.1v2.43c0,.83-.4,1.07-.97,1.07h-2.6c-.7,0-1.03-.37-1.03-1.07v-2.49Z"/>
    <path class="st7" d="M758.72,260.89v25.24c0,.7-.34,1.03-1,1.03h-1.66c-.7,0-1.06-.33-1.06-1.03v-38.68c0-.77.6-1.07,1.26-1.07h1.27c.77,0,1.2.5,1.2,1.16v5.2c2.96-4.13,6.59-6.59,11.92-6.59,6.42,0,10.92,3.19,13.45,8.52,2.43-5.73,7.66-8.52,13.48-8.52,8.19,0,13.92,5.86,14.88,13.35.23,1.44.23,2.93.23,4.43v21.8c0,.97-.5,1.43-1.26,1.43h-1.23c-.93,0-1.2-.4-1.2-1.36v-24c0-6.03-4.3-11.92-11.62-11.92-8.35,0-11.65,6.42-11.65,13.62v22.27c0,.93-.5,1.4-1.26,1.4h-1.23c-.97,0-1.23-.4-1.23-1.36v-22.31c0-6.93-2.96-13.58-11.58-13.58-5.89,0-11.68,4.59-11.68,10.98Z"/>
  </g>
  <path class="st1" d="M194.43,58.22h34.41c.42,2.23.67,4.53.67,6.88v107.44c0,2.08-.22,4.12-.55,6.11h-34.53V58.22ZM185.53,190.48c-2.03,0-3.04-1.01-3.04-3.14V49.21c0-2.12,1.02-3.14,3.04-3.14h38.67c-6.52-10.85-18.37-18.17-31.87-18.17H61.79c-20.45,0-37.19,16.74-37.19,37.19v107.44c0,20.45,16.74,37.19,37.19,37.19h130.53c13.95,0,26.17-7.8,32.53-19.25h-39.32Z"/>
  <path class="st8" d="M174.69,196.54h-107.25c-16.44,0-29.82-13.38-29.82-29.82v-96.3c0-16.44,13.38-29.82,29.82-29.82h107.25v5.47h-107.25c-13.43,0-24.35,10.92-24.35,24.35v96.3c0,13.43,10.92,24.35,24.35,24.35h107.25v5.47Z"/>
  <path class="st2" d="M96.87,140.14l-30.44-38.69c-.43-.54-.39-1.32.09-1.82h0c.49-.51,1.28-.57,1.84-.14l30.91,23.71c.42.32,1.01.31,1.42-.03l71.39-59.9c.45-.38,1.12-.35,1.54.08h0c.42.43.43,1.12.02,1.56l-70.17,75.49c-1.82,1.96-4.95,1.83-6.6-.27Z"/>
  <rect class="st0" x="66.14" y="127.02" width="13.94" height="5.47"/>
  <rect class="st6" x="126.33" y="127.02" width="47.62" height="5.47"/>
  <rect class="st4" x="64.51" y="151.19" width="109.43" height="5.47"/>
  <rect class="st5" x="130.17" y="167.6" width="43.77" height="5.47"/>
</svg>