<?xml version="1.0" encoding="UTF-8"?>
<svg id="Layer_1" xmlns="http://www.w3.org/2000/svg" version="1.1" xmlns:xlink="http://www.w3.org/1999/xlink" viewBox="0 0 203.66 54.44">
  <!-- Generator: Adobe Illustrator 29.8.4, SVG Export Plug-In . SVG Version: 2.1.1 Build 6)  -->
  <defs>
    <style>
      .st0 {
        fill: url(#linear-gradient2);
      }

      .st1 {
        fill: #fff;
      }

      .st2 {
        fill: url(#linear-gradient1);
      }

      .st3 {
        fill: url(#linear-gradient4);
      }

      .st4 {
        fill: url(#linear-gradient5);
      }

      .st5 {
        fill: url(#linear-gradient3);
      }

      .st6 {
        fill: url(#linear-gradient6);
      }

      .st7 {
        fill: url(#linear-gradient);
      }
    </style>
    <linearGradient id="linear-gradient" x1="4.47" y1="29.34" x2="53.63" y2="29.34" gradientTransform="translate(0 57.2) scale(1 -1)" gradientUnits="userSpaceOnUse">
      <stop offset="0" stop-color="#0c572c"/>
      <stop offset="1" stop-color="#54ad47"/>
    </linearGradient>
    <linearGradient id="linear-gradient1" x1="-2151.16" y1="29.4" x2="-2118.27" y2="29.4" gradientTransform="translate(-2110.68 57.2) rotate(-180)" gradientUnits="userSpaceOnUse">
      <stop offset="0" stop-color="#fff"/>
      <stop offset=".24" stop-color="#fafbfc"/>
      <stop offset=".52" stop-color="#ededee"/>
      <stop offset=".81" stop-color="#d5d7db"/>
      <stop offset="1" stop-color="#c2c6cc"/>
    </linearGradient>
    <linearGradient id="linear-gradient2" x1="14.44" y1="33.28" x2="40.32" y2="33.28" gradientTransform="translate(0 57.2) scale(1 -1)" xlink:href="#linear-gradient1"/>
    <linearGradient id="linear-gradient3" x1="14.43" y1="26.72" x2="17.78" y2="26.72" gradientTransform="translate(0 57.2) scale(1 -1)" xlink:href="#linear-gradient1"/>
    <linearGradient id="linear-gradient4" x1="28.88" y1="26.72" x2="40.3" y2="26.72" gradientTransform="translate(0 57.2) scale(1 -1)" xlink:href="#linear-gradient1"/>
    <linearGradient id="linear-gradient5" x1="14.05" y1="20.92" x2="40.31" y2="20.92" gradientTransform="translate(0 57.2) scale(1 -1)" xlink:href="#linear-gradient1"/>
    <linearGradient id="linear-gradient6" x1="29.8" y1="16.98" x2="40.3" y2="16.98" gradientTransform="translate(0 57.2) scale(1 -1)" xlink:href="#linear-gradient1"/>
  </defs>
  <path class="st1" d="M77.61,6.56c0-.39.17-.68.68-.68h1.77c.41,0,.61.24.61.7v1.7c0,.51-.24.65-.61.65h-1.74c-.46,0-.7-.22-.7-.65,0,0,0-1.72,0-1.72ZM77.75,16.13c0-.53.24-.8.75-.8h1.26c.48,0,.94.31.94.8v28.09c0,.56-.24.82-.7.82h-1.5c-.51,0-.75-.27-.75-.82,0,0,0-28.09,0-28.09Z"/>
  <path class="st1" d="M98.22,27.04l14.59,16.76c.53.61.05,1.26-.46,1.26h-1.7c-.27,0-.51-.05-.92-.53l-13.43-15.67-4.86,4.64v10.68c0,.51-.22.87-.73.87h-1.48c-.51,0-.48-.36-.48-.87V7.45c0-.48.22-.82.73-.82h1.24c.51,0,.73.34.73.82v22.58l14.74-14.28c.39-.39.68-.41.97-.41h1.77c.56,0,.82.51.41.92l-11.13,10.78h.01Z"/>
  <path class="st1" d="M131.52,15.04c8.5,0,15.29,6.78,15.29,15.22s-6.78,15.39-15.25,15.39-15.39-7-15.39-15.39,6.95-15.22,15.34-15.22ZM131.57,43.01c7.19,0,12.46-5.9,12.46-12.75s-5.51-12.63-12.51-12.63-12.48,5.7-12.48,12.63,5.63,12.75,12.53,12.75Z"/>
  <path class="st1" d="M152.55,16.18c0-.56.36-.85.87-.85h.97c.56,0,.85.36.85.85v3.69c2.72-4.08,6.93-4.93,9.86-4.93,7.19,0,11.98,5.17,11.98,12.44v16.66c0,.68-.39,1.02-.94,1.02h-.85c-.75,0-.92-.29-.92-.99v-16.76c0-4.86-3.52-9.64-9.42-9.64-4.78,0-9.69,3.98-9.69,9.35v17.29c0,.51-.24.75-.7.75h-1.24c-.48,0-.73-.24-.73-.75l-.02-28.12h-.01Z"/>
  <path class="st1" d="M188.66,15.5h5.34c.46,0,.73.22.73.73v.94c0,.39-.29.9-.75.9h-5.32v20.57c0,1.7.77,3.81,3.23,3.89l.87.02c1.04,0,.99.39.99.63v1.16c0,.51-.05.75-1.11.75-.65,0-1.19,0-1.67-.07-3.28-.39-5.12-3.06-5.12-5.97v-20.97h-4.08c-.41,0-.77-.39-.77-.9v-.92c0-.56.36-.75.77-.75h4.08v-6.36c0-.48.17-.68.73-.85l1.31-.34c.51-.17.77.31.77.82v6.72h0Z"/>
  <path class="st1" d="M53.75,10.4h-1.39c.53.88.92,1.86,1.11,2.92h.21c8.82,0,14.93,6.41,14.93,14.45s-6.58,14.41-15.11,14.45c-.17,1.02-.51,1.97-.99,2.85h.97c10.58,0,18.07-7.75,18.07-17.29s-7.34-17.36-17.8-17.36h.01Z"/>
  <path class="st7" d="M45.22,13.32h8.26c.1.53.16,1.09.16,1.65v25.78c0,.5-.05.99-.13,1.47h-8.28V13.32ZM43.09,45.06c-.48,0-.73-.24-.73-.75V11.15c0-.51.24-.75.73-.75h9.28c-1.56-2.6-4.41-4.36-7.65-4.36H13.39c-4.9,0-8.92,4.02-8.92,8.92v25.78c0,4.9,4.02,8.92,8.92,8.92h31.33c3.35,0,6.28-1.88,7.81-4.61h-9.45Z"/>
  <path class="st2" d="M40.48,46.51H14.75c-3.95,0-7.16-3.21-7.16-7.16v-23.12c0-3.95,3.21-7.16,7.16-7.16h25.73v1.31H14.75c-3.22,0-5.85,2.62-5.85,5.85v23.12c0,3.22,2.62,5.85,5.85,5.85h25.73v1.31Z"/>
  <path class="st0" d="M21.81,32.98l-7.3-9.29c-.1-.13-.1-.31.02-.44h0c.12-.12.3-.13.45-.04l7.42,5.69c.1.07.24.07.34,0l17.13-14.37c.11-.1.27-.08.36.01h0c.1.11.11.27,0,.38l-16.84,18.12c-.44.47-1.19.44-1.59-.06Z"/>
  <rect class="st5" x="14.43" y="29.83" width="3.34" height="1.31"/>
  <rect class="st3" x="28.88" y="29.83" width="11.43" height="1.31"/>
  <rect class="st4" x="14.05" y="35.63" width="26.26" height="1.31"/>
  <rect class="st6" x="29.8" y="39.56" width="10.5" height="1.31"/>
</svg>