<?xml version="1.0" encoding="UTF-8"?>
<svg id="Layer_1" xmlns="http://www.w3.org/2000/svg" version="1.1" xmlns:xlink="http://www.w3.org/1999/xlink" viewBox="0 0 266.37 229.64">
  <!-- Generator: Adobe Illustrator 29.8.4, SVG Export Plug-In . SVG Version: 2.1.1 Build 6)  -->
  <defs>
    <style>
      .st0 {
        filter: url(#drop-shadow-2);
      }

      .st1 {
        fill: #181e3d;
      }

      .st2 {
        filter: url(#drop-shadow-1);
      }

      .st3 {
        fill: #eae9f4;
      }

      .st4 {
        filter: url(#drop-shadow-3);
      }

      .st5 {
        fill: #bcbcbc;
      }
    </style>
    <filter id="drop-shadow-1" x="61.52" y="12.44" width="166" height="195.43" filterUnits="userSpaceOnUse">
      <feOffset dx="-1.2" dy=".6"/>
      <feGaussianBlur result="blur" stdDeviation="0"/>
      <feFlood flood-color="#cecece" flood-opacity=".75"/>
      <feComposite in2="blur" operator="in"/>
      <feComposite in="SourceGraphic"/>
    </filter>
    <filter id="drop-shadow-2" x="52.87" y="8.3" width="166" height="195.43" filterUnits="userSpaceOnUse">
      <feOffset dx="-1.2" dy=".6"/>
      <feGaussianBlur result="blur1" stdDeviation="0"/>
      <feFlood flood-color="#cecece" flood-opacity=".75"/>
      <feComposite in2="blur1" operator="in"/>
      <feComposite in="SourceGraphic"/>
    </filter>
    <filter id="drop-shadow-3" x="41.97" y="5.67" width="166" height="195.43" filterUnits="userSpaceOnUse">
      <feOffset dx="-1.2" dy=".6"/>
      <feGaussianBlur result="blur2" stdDeviation="0"/>
      <feFlood flood-color="#cecece" flood-opacity=".75"/>
      <feComposite in2="blur2" operator="in"/>
      <feComposite in="SourceGraphic"/>
    </filter>
  </defs>
  <g>
    <path class="st5" d="M33.92,223.37c-1.95,0-3.74-.77-4.9-2.12-1.09-1.26-1.56-2.9-1.31-4.61l18.56-128.48c.51-3.55,4.02-6.44,7.83-6.44h198.44c1.95,0,3.74.77,4.91,2.12,1.09,1.26,1.55,2.9,1.31,4.61l-18.56,128.48c-.51,3.55-4.03,6.44-7.83,6.44H33.92Z"/>
    <path class="st1" d="M252.54,82.72c3.33,0,5.67,2.5,5.22,5.58l-18.56,128.48c-.45,3.08-3.51,5.58-6.84,5.58H33.92c-3.33,0-5.67-2.5-5.22-5.58l18.56-128.48c.45-3.08,3.51-5.58,6.84-5.58h198.44M252.54,80.72H54.1c-4.35,0-8.23,3.21-8.82,7.3l-18.56,128.48c-.29,2,.26,3.93,1.54,5.41,1.35,1.56,3.42,2.46,5.66,2.46h198.44c4.35,0,8.23-3.21,8.82-7.3l18.56-128.48c.29-2-.26-3.93-1.54-5.41-1.35-1.56-3.42-2.46-5.66-2.46h0Z"/>
  </g>
  <g class="st2">
    <g>
      <rect class="st3" x="63.72" y="13.44" width="162.8" height="192.83" rx="1" ry="1"/>
      <path class="st1" d="M225.53,14.44v190.83H64.72V14.44h160.8M225.53,12.44H64.72c-1.1,0-2,.9-2,2v190.83c0,1.1.9,2,2,2h160.8c1.1,0,2-.9,2-2V14.44c0-1.1-.9-2-2-2h0Z"/>
    </g>
    <path class="st1" d="M149.45,33.47h63.18c.55,0,1,.45,1,1h0c0,.55-.45,1-1,1h-63.18c-.55,0-1-.45-1-1h0c0-.55.45-1,1-1Z"/>
    <path class="st1" d="M75.79,162.3h63.18c.55,0,1,.45,1,1h0c0,.55-.45,1-1,1h-63.18c-.55,0-1-.45-1-1h0c0-.55.45-1,1-1Z"/>
    <rect class="st1" x="73.24" y="22.94" width="53.15" height="2.01" rx=".55" ry=".55" transform="translate(199.62 47.89) rotate(-180)"/>
    <path class="st1" d="M74.66,49.22h138.4c.62,0,1.13-.51,1.13-1.13h0c0-.62-.51-1.13-1.13-1.13H74.66c-.62,0-1.13.51-1.13,1.13h0c0,.62.51,1.13,1.13,1.13Z"/>
    <path class="st1" d="M74.66,57.12h138.4c.62,0,1.13-.51,1.13-1.13h0c0-.62-.51-1.13-1.13-1.13H74.66c-.62,0-1.13.51-1.13,1.13h0c0,.62.51,1.13,1.13,1.13Z"/>
    <path class="st1" d="M74.66,65.77h138.4c.62,0,1.13-.51,1.13-1.13h0c0-.62-.51-1.13-1.13-1.13H74.66c-.62,0-1.13.51-1.13,1.13h0c0,.62.51,1.13,1.13,1.13Z"/>
    <path class="st1" d="M74.66,73.29h138.4c.62,0,1.13-.51,1.13-1.13h0c0-.62-.51-1.13-1.13-1.13H74.66c-.62,0-1.13.51-1.13,1.13h0c0,.62.51,1.13,1.13,1.13Z"/>
    <path class="st1" d="M74.66,81.56h138.4c.62,0,1.13-.51,1.13-1.13h0c0-.62-.51-1.13-1.13-1.13H74.66c-.62,0-1.13.51-1.13,1.13h0c0,.62.51,1.13,1.13,1.13Z"/>
    <path class="st1" d="M74.66,107.14h138.4c.62,0,1.13-.51,1.13-1.13h0c0-.62-.51-1.13-1.13-1.13H74.66c-.62,0-1.13.51-1.13,1.13h0c0,.62.51,1.13,1.13,1.13Z"/>
    <path class="st1" d="M74.66,115.04h138.4c.62,0,1.13-.51,1.13-1.13h0c0-.62-.51-1.13-1.13-1.13H74.66c-.62,0-1.13.51-1.13,1.13h0c0,.62.51,1.13,1.13,1.13Z"/>
    <path class="st1" d="M74.66,123.69h138.4c.62,0,1.13-.51,1.13-1.13h0c0-.62-.51-1.13-1.13-1.13H74.66c-.62,0-1.13.51-1.13,1.13h0c0,.62.51,1.13,1.13,1.13Z"/>
    <path class="st1" d="M74.66,131.21h138.4c.62,0,1.13-.51,1.13-1.13h0c0-.62-.51-1.13-1.13-1.13H74.66c-.62,0-1.13.51-1.13,1.13h0c0,.62.51,1.13,1.13,1.13Z"/>
    <path class="st1" d="M74.66,139.48h138.4c.62,0,1.13-.51,1.13-1.13h0c0-.62-.51-1.13-1.13-1.13H74.66c-.62,0-1.13.51-1.13,1.13h0c0,.62.51,1.13,1.13,1.13Z"/>
  </g>
  <g class="st0">
    <g>
      <rect class="st3" x="55.07" y="9.3" width="162.8" height="192.83" rx="1" ry="1"/>
      <path class="st1" d="M216.88,10.3v190.83H56.07V10.3h160.8M216.88,8.3H56.07c-1.1,0-2,.9-2,2v190.83c0,1.1.9,2,2,2h160.8c1.1,0,2-.9,2-2V10.3c0-1.1-.9-2-2-2h0Z"/>
    </g>
    <path class="st1" d="M140.8,29.34h63.18c.55,0,1,.45,1,1h0c0,.55-.45,1-1,1h-63.18c-.55,0-1-.45-1-1h0c0-.55.45-1,1-1Z"/>
    <path class="st1" d="M67.14,158.16h63.18c.55,0,1,.45,1,1h0c0,.55-.45,1-1,1h-63.18c-.55,0-1-.45-1-1h0c0-.55.45-1,1-1Z"/>
    <rect class="st1" x="64.59" y="18.81" width="53.15" height="2.01" rx=".55" ry=".55" transform="translate(182.32 39.62) rotate(-180)"/>
    <path class="st1" d="M66.01,45.08h138.4c.62,0,1.13-.51,1.13-1.13h0c0-.62-.51-1.13-1.13-1.13H66.01c-.62,0-1.13.51-1.13,1.13h0c0,.62.51,1.13,1.13,1.13Z"/>
    <path class="st1" d="M66.01,52.98h138.4c.62,0,1.13-.51,1.13-1.13h0c0-.62-.51-1.13-1.13-1.13H66.01c-.62,0-1.13.51-1.13,1.13h0c0,.62.51,1.13,1.13,1.13Z"/>
    <path class="st1" d="M66.01,61.63h138.4c.62,0,1.13-.51,1.13-1.13h0c0-.62-.51-1.13-1.13-1.13H66.01c-.62,0-1.13.51-1.13,1.13h0c0,.62.51,1.13,1.13,1.13Z"/>
    <path class="st1" d="M66.01,69.15h138.4c.62,0,1.13-.51,1.13-1.13h0c0-.62-.51-1.13-1.13-1.13H66.01c-.62,0-1.13.51-1.13,1.13h0c0,.62.51,1.13,1.13,1.13Z"/>
    <path class="st1" d="M66.01,77.43h138.4c.62,0,1.13-.51,1.13-1.13h0c0-.62-.51-1.13-1.13-1.13H66.01c-.62,0-1.13.51-1.13,1.13h0c0,.62.51,1.13,1.13,1.13Z"/>
    <path class="st1" d="M66.01,103h138.4c.62,0,1.13-.51,1.13-1.13h0c0-.62-.51-1.13-1.13-1.13H66.01c-.62,0-1.13.51-1.13,1.13h0c0,.62.51,1.13,1.13,1.13Z"/>
    <path class="st1" d="M66.01,110.9h138.4c.62,0,1.13-.51,1.13-1.13h0c0-.62-.51-1.13-1.13-1.13H66.01c-.62,0-1.13.51-1.13,1.13h0c0,.62.51,1.13,1.13,1.13Z"/>
    <path class="st1" d="M66.01,119.55h138.4c.62,0,1.13-.51,1.13-1.13h0c0-.62-.51-1.13-1.13-1.13H66.01c-.62,0-1.13.51-1.13,1.13h0c0,.62.51,1.13,1.13,1.13Z"/>
    <path class="st1" d="M66.01,127.07h138.4c.62,0,1.13-.51,1.13-1.13h0c0-.62-.51-1.13-1.13-1.13H66.01c-.62,0-1.13.51-1.13,1.13h0c0,.62.51,1.13,1.13,1.13Z"/>
    <path class="st1" d="M66.01,135.34h138.4c.62,0,1.13-.51,1.13-1.13h0c0-.62-.51-1.13-1.13-1.13H66.01c-.62,0-1.13.51-1.13,1.13h0c0,.62.51,1.13,1.13,1.13Z"/>
  </g>
  <g class="st4">
    <g>
      <rect class="st3" x="44.17" y="6.67" width="162.8" height="192.83" rx="1" ry="1"/>
      <path class="st1" d="M205.97,7.67v190.83H45.17V7.67h160.8M205.97,5.67H45.17c-1.1,0-2,.9-2,2v190.83c0,1.1.9,2,2,2h160.8c1.1,0,2-.9,2-2V7.67c0-1.1-.9-2-2-2h0Z"/>
    </g>
    <path class="st1" d="M129.9,26.7h63.18c.55,0,1,.45,1,1h0c0,.55-.45,1-1,1h-63.18c-.55,0-1-.45-1-1h0c0-.55.45-1,1-1Z"/>
    <path class="st1" d="M56.23,155.53h63.18c.55,0,1,.45,1,1h0c0,.55-.45,1-1,1h-63.18c-.55,0-1-.45-1-1h0c0-.55.45-1,1-1Z"/>
    <rect class="st1" x="53.68" y="16.17" width="53.15" height="2.01" rx=".55" ry=".55" transform="translate(160.51 34.35) rotate(-180)"/>
    <path class="st1" d="M55.11,42.45h138.4c.62,0,1.13-.51,1.13-1.13h0c0-.62-.51-1.13-1.13-1.13H55.11c-.62,0-1.13.51-1.13,1.13h0c0,.62.51,1.13,1.13,1.13Z"/>
    <path class="st1" d="M55.11,50.35h138.4c.62,0,1.13-.51,1.13-1.13h0c0-.62-.51-1.13-1.13-1.13H55.11c-.62,0-1.13.51-1.13,1.13h0c0,.62.51,1.13,1.13,1.13Z"/>
    <path class="st1" d="M55.11,59h138.4c.62,0,1.13-.51,1.13-1.13h0c0-.62-.51-1.13-1.13-1.13H55.11c-.62,0-1.13.51-1.13,1.13h0c0,.62.51,1.13,1.13,1.13Z"/>
    <path class="st1" d="M55.11,66.52h138.4c.62,0,1.13-.51,1.13-1.13h0c0-.62-.51-1.13-1.13-1.13H55.11c-.62,0-1.13.51-1.13,1.13h0c0,.62.51,1.13,1.13,1.13Z"/>
    <path class="st1" d="M55.11,74.79h138.4c.62,0,1.13-.51,1.13-1.13h0c0-.62-.51-1.13-1.13-1.13H55.11c-.62,0-1.13.51-1.13,1.13h0c0,.62.51,1.13,1.13,1.13Z"/>
    <path class="st1" d="M55.11,100.37h138.4c.62,0,1.13-.51,1.13-1.13h0c0-.62-.51-1.13-1.13-1.13H55.11c-.62,0-1.13.51-1.13,1.13h0c0,.62.51,1.13,1.13,1.13Z"/>
    <path class="st1" d="M55.11,108.27h138.4c.62,0,1.13-.51,1.13-1.13h0c0-.62-.51-1.13-1.13-1.13H55.11c-.62,0-1.13.51-1.13,1.13h0c0,.62.51,1.13,1.13,1.13Z"/>
    <path class="st1" d="M55.11,116.92h138.4c.62,0,1.13-.51,1.13-1.13h0c0-.62-.51-1.13-1.13-1.13H55.11c-.62,0-1.13.51-1.13,1.13h0c0,.62.51,1.13,1.13,1.13Z"/>
    <path class="st1" d="M55.11,124.44h138.4c.62,0,1.13-.51,1.13-1.13h0c0-.62-.51-1.13-1.13-1.13H55.11c-.62,0-1.13.51-1.13,1.13h0c0,.62.51,1.13,1.13,1.13Z"/>
    <path class="st1" d="M55.11,132.71h138.4c.62,0,1.13-.51,1.13-1.13h0c0-.62-.51-1.13-1.13-1.13H55.11c-.62,0-1.13.51-1.13,1.13h0c0,.62.51,1.13,1.13,1.13Z"/>
  </g>
  <g>
    <path class="st5" d="M35.52,223.03c-3.82-.02-7.32-3.12-7.81-6.92L9.67,77.26c-.25-1.9.26-3.69,1.45-5.05,1.18-1.35,2.88-2.1,4.78-2.1l93.9.35,104.55.4c3.8.02,7.3,3.13,7.81,6.93l18.04,138.84c.25,1.92-.27,3.72-1.47,5.07-1.18,1.34-2.86,2.07-4.75,2.07l-198.46-.74Z"/>
    <path class="st1" d="M15.9,71.12l93.89.35,104.55.4c3.33.02,6.38,2.73,6.82,6.06l18.04,138.83c.43,3.33-1.9,6.01-5.22,6.01-.01,0-.02,0-.03,0l-136.66-.51-61.76-.23c-3.34-.02-6.39-2.72-6.82-6.05L10.66,77.13c-.44-3.33,1.91-6.01,5.24-6.01M15.91,69.12h0c-2.19,0-4.16.87-5.54,2.44-1.38,1.58-1.98,3.65-1.69,5.84l18.04,138.84c.56,4.34,4.42,7.77,8.79,7.79l61.77.23,136.66.51c2.22,0,4.17-.86,5.54-2.41,1.38-1.57,1.99-3.65,1.71-5.86l-18.04-138.84c-.58-4.36-4.44-7.78-8.79-7.81l-104.55-.4-93.89-.35h0Z"/>
  </g>
</svg>